<svg
  xmlns="http://www.w3.org/2000/svg"
  width="188"
  height="192"
  viewBox="0 0 188 192"
  fill="none"
>
  <style>
    path {
      fill: #5cb7f3;
    }
    @media (prefers-color-scheme: dark) {
      path {
        fill: #ffffff;
      }
    }
  </style>
  <path
    d="M188 181.415L116.713 110.127L143.105 86.4533C158.357 72.768 163.478 51.565 156.153 32.4303C148.821 13.3018 130.85 0.94165 110.359 0.94165H0.616544V37.1118H110.359C118.577 37.1118 121.623 43.4281 122.36 45.3664C123.314 47.8495 124.887 54.1968 118.942 59.5285L91.0884 84.5151L80.8832 74.3161C67.1669 60.6122 47.5306 56.7048 29.6344 64.1295C11.732 71.5419 0.610352 88.1872 0.610352 107.57V173.773C0.610352 180.907 4.81503 187.39 11.3295 190.288C17.7882 193.162 25.5783 191.905 30.7676 187.236L89.7384 134.327L147.273 191.861H188V181.415ZM36.7929 133.256V107.57C36.7929 101.024 41.4806 98.38 43.4931 97.544C44.1248 97.2839 45.8215 96.6709 47.8898 96.6709C50.6826 96.6709 53.1843 97.7546 55.3145 99.8972L64.1388 108.721L36.7929 133.256Z"
  />
</svg>
